<svg id="visual" viewBox="0 0 900 675" width="900" height="675" xmlns="http://www.w3.org/2000/svg" xmlns:xlink="http://www.w3.org/1999/xlink" version="1.1"><path d="M0 89L82 150L164 62L245 190L327 116L409 183L491 150L573 170L655 177L736 89L818 89L900 170L900 0L818 0L736 0L655 0L573 0L491 0L409 0L327 0L245 0L164 0L82 0L0 0Z" fill="#af7fe9"></path><path d="M0 237L82 393L164 170L245 386L327 278L409 285L491 393L573 433L655 413L736 204L818 278L900 285L900 168L818 87L736 87L655 175L573 168L491 148L409 181L327 114L245 188L164 60L82 148L0 87Z" fill="#a067de"></path><path d="M0 494L82 534L164 447L245 561L327 514L409 528L491 541L573 521L655 507L736 467L818 548L900 541L900 283L818 276L736 202L655 411L573 431L491 391L409 283L327 276L245 384L164 168L82 391L0 235Z" fill="#914dd2"></path><path d="M0 629L82 602L164 561L245 629L327 629L409 602L491 636L573 568L655 629L736 595L818 629L900 609L900 539L818 546L736 465L655 505L573 519L491 539L409 526L327 512L245 559L164 445L82 532L0 492Z" fill="#8231c5"></path><path d="M0 676L82 676L164 676L245 676L327 676L409 676L491 676L573 676L655 676L736 676L818 676L900 676L900 607L818 627L736 593L655 627L573 566L491 634L409 600L327 627L245 627L164 559L82 600L0 627Z" fill="#7400b8"></path></svg>